Coordinates
version=1
nRows=60
nColumns=12
inDegrees=yes

Units are S.I. units (second, meters, Newtons, ...)
Angles are in degrees

endheader
time	SC_y	SC_z	SC_x	AC_y	AC_z	AC_x	GH_y	GH_z	GH_yy	EL_x	PS_y
       0.0              -59.61          10.09          20.53          52.15          8.371         -18.06          17.21          32.17         -25.93          27.71          137.9
   0.03846              -59.61           10.1          20.53          52.15          8.368         -18.06          17.18          32.17         -25.91          27.72          137.9
   0.07692              -59.61           10.1          20.54          52.15          8.364         -18.06          17.16          32.17         -25.88          27.73          137.9
    0.1154               -59.6           10.1          20.54          52.15           8.36         -18.06          17.14          32.17         -25.85          27.75          137.9
    0.1538               -59.6          10.11          20.55          52.15          8.356         -18.06          17.11          32.17         -25.81          27.76          137.9
    0.1923               -59.6          10.11          20.55          52.16          8.351         -18.06          17.08          32.17         -25.78          27.78          137.9
    0.2308               -59.6          10.11          20.56          52.16          8.346         -18.06          17.05          32.17         -25.74          27.79          137.9
    0.2692               -59.6          10.12          20.57          52.16          8.341         -18.06          17.02          32.16          -25.7          27.81          137.9
    0.3077               -59.6          10.12          20.57          52.16          8.336         -18.06          16.98          32.16         -25.66          27.83          137.9
    0.3461              -59.59          10.12          20.58          52.17           8.33         -18.06          16.95          32.16         -25.61          27.85          137.9
    0.3846              -59.59          10.13          20.59          52.17          8.324         -18.06          16.91          32.16         -25.56          27.87          137.9
    0.4231              -59.59          10.13          20.59          52.17          8.317         -18.06          16.86          32.16         -25.51          27.89          137.8
    0.4615              -59.59          10.14           20.6          52.17           8.31         -18.06          16.82          32.15         -25.45          27.91          137.8
       0.5              -59.58          10.14          20.61          52.18          8.302         -18.06          16.77          32.15         -25.39          27.94          137.8
    0.5384              -59.58          10.15          20.62          52.18          8.293         -18.06          16.72          32.15         -25.32          27.97          137.8
    0.5769              -59.58          10.16          20.63          52.18          8.284         -18.06          16.66          32.15         -25.25           28.0          137.8
    0.6154              -59.57          10.16          20.65          52.19          8.274         -18.06          16.59          32.14         -25.17          28.03          137.8
    0.6538              -59.57          10.17          20.66          52.19          8.263         -18.06          16.53          32.14         -25.08          28.06          137.7
    0.6923              -59.56          10.18          20.67           52.2          8.251         -18.06          16.45          32.14         -24.99           28.1          137.7
    0.7307              -59.56          10.19          20.69           52.2          8.238         -18.07          16.37          32.13         -24.89          28.15          137.7
    0.7692              -59.55           10.2          20.71          52.21          8.224         -18.07          16.28          32.13         -24.77          28.19          137.7
    0.8077              -59.55          10.21          20.73          52.22          8.208         -18.07          16.18          32.13         -24.65          28.25          137.6
    0.8461              -59.54          10.22          20.75          52.22           8.19         -18.07          16.07          32.12         -24.51           28.3          137.6
    0.8846              -59.53          10.24          20.77          52.23          8.171         -18.07          15.95          32.12         -24.36          28.37          137.6
     0.923              -59.52          10.25           20.8          52.24           8.15         -18.07          15.81          32.11         -24.19          28.44          137.5
    0.9615              -59.52          10.27          20.83          52.25          8.125         -18.07          15.66           32.1          -24.0          28.52          137.5
       1.0              -59.51          10.29          20.86          52.26          8.099         -18.07          15.49           32.1         -23.79           28.6          137.4
     1.038              -59.49          10.31           20.9          52.27          8.068         -18.07           15.3          32.09         -23.55           28.7          137.4
     1.077              -59.48          10.33          20.94          52.29          8.034         -18.08          15.08          32.08         -23.28          28.82          137.3
     1.115              -59.47          10.36          20.98          52.31          7.995         -18.08          14.84          32.07         -22.98          28.94          137.2
     1.154              -59.45          10.39          21.04          52.32          7.951         -18.08          14.56          32.05         -22.63          29.09          137.1
     1.192              -59.43          10.43           21.1          52.35            7.9         -18.08          14.24          32.04         -22.23          29.26          137.0
     1.231              -59.41          10.47          21.17          52.37          7.841         -18.09          13.87          32.02         -21.77          29.45          136.9
     1.269              -59.38          10.52          21.25           52.4          7.773         -18.09          13.44           32.0         -21.23          29.67          136.8
     1.308              -59.35          10.57          21.35          52.43          7.693          -18.1          12.94          31.98          -20.6          29.93          136.6
     1.346              -59.32          10.64          21.46          52.47          7.599          -18.1          12.34          31.96         -19.86          30.24          136.5
     1.385              -59.27          10.72           21.6          52.52          7.487         -18.11          11.64          31.92         -18.98          30.61          136.2
     1.423              -59.22          10.82          21.76          52.57          7.353         -18.12          10.79          31.89         -17.92          31.05          136.0
     1.461              -59.16          10.93          21.96          52.64          7.191         -18.12          9.773          31.84         -16.65          31.58          135.7
       1.5              -59.09          11.07           22.2          52.72          6.993         -18.14          8.525          31.79         -15.09          32.23          135.3
     1.538              -58.99          11.24          22.49          52.83          6.749         -18.15          6.985          31.72         -13.17          33.03          134.8
     1.577              -58.88          11.46          22.86          52.95          6.444         -18.17          5.064          31.63         -10.77          34.03          134.2
     1.615              -58.73          11.73          23.33          53.12           6.06         -18.19          2.645          31.52         -7.744          35.29          133.5
     1.654              -58.55          12.08          23.92          53.32          5.571         -18.22        -0.4312          31.39         -3.901          36.89          132.6
     1.692              -58.31          12.52          24.68          53.58          4.946         -18.25         -4.368          31.21          1.017          38.94          131.4
     1.731               -58.0          13.09          25.65          53.92          4.145          -18.3          -9.42          30.99          7.328          41.57          129.8
     1.769              -57.62          13.82          26.89          54.35           3.12         -18.36         -15.87           30.7          15.39          44.93          127.8
     1.808              -57.13          14.73          28.45          54.89          1.832         -18.43         -23.99          30.34          25.53          49.15          125.4
     1.846              -56.53          15.84          30.35          55.54         0.2624         -18.52         -33.88           29.9          37.88           54.3          122.4
     1.885              -55.84          17.13          32.55           56.3         -1.557         -18.62         -45.34          29.39           52.2          60.27          118.9
     1.923              -55.09          18.53          34.94          57.13         -3.527         -18.74         -57.75          28.83           67.7          66.73          115.1
     1.961              -54.34          19.92          37.33          57.95         -5.497         -18.85         -70.16          28.28           83.2          73.19          111.3
       2.0              -53.65          21.21          39.53          58.71         -7.317         -18.95         -81.62          27.77          97.52          79.15          107.8
     2.038              -53.06          22.33          41.43          59.37         -8.886         -19.04         -91.51          27.33          109.9           84.3          104.8
     2.077              -52.57          23.24          42.99          59.91         -10.17         -19.11         -99.62          26.97          120.0          88.52          102.3
     2.115              -52.18          23.97          44.23          60.34          -11.2         -19.17         -106.1          26.68          128.1          91.88          100.3
     2.154              -51.88          24.53          45.21          60.68          -12.0         -19.22         -111.1          26.46          134.4          94.51          98.77
     2.192              -51.64          24.98          45.96          60.94         -12.63         -19.25         -115.1          26.28          139.3          96.56          97.57
     2.231              -51.45          25.32          46.55          61.14         -13.11         -19.28         -118.1          26.14          143.1          98.16          96.63
     2.269              -51.31           25.6          47.02           61.3          -13.5          -19.3         -120.6          26.04          146.2          99.42          95.89
